{
    "accessors" : [
        {
            "bufferView" : 0,
            "componentType" : 5126,
            "count" : 1892,
            "max" : [
                3.2252871990203857,
                2.518251657485962,
                0.8673892617225647
            ],
            "min" : [
                -3.2252869606018066,
                -1.9942495822906494,
                -0.8673892617225647
            ],
            "type" : "VEC3"
        },
        {
            "bufferView" : 1,
            "componentType" : 5126,
            "count" : 1892,
            "type" : "VEC3"
        },
        {
            "bufferView" : 2,
            "componentType" : 5126,
            "count" : 1892,
            "type" : "VEC2"
        },
        {
            "bufferView" : 3,
            "componentType" : 5123,
            "count" : 2844,
            "type" : "SCALAR"
        }
    ],
    "asset" : {
        "generator" : "Khronos Blender glTF 2.0 I/O",
        "version" : "2.0"
    },
    "bufferViews" : [
        {
            "buffer" : 0,
            "byteLength" : 22704,
            "byteOffset" : 0
        },
        {
            "buffer" : 0,
            "byteLength" : 22704,
            "byteOffset" : 22704
        },
        {
            "buffer" : 0,
            "byteLength" : 15136,
            "byteOffset" : 45408
        },
        {
            "buffer" : 0,
            "byteLength" : 5688,
            "byteOffset" : 60544
        }
    ],
    "buffers" : [
        {
            "byteLength" : 66232,
            "uri" : "skull.bin"
        }
    ],
    "extensions" : {},
    "materials" : [
        {
            "name" : "Material.002",
            "pbrMetallicRoughness" : {
                "baseColorFactor" : [
                    0.800000011920929,
                    0.800000011920929,
                    0.800000011920929,
                    1
                ],
                "metallicFactor" : 0,
                "roughnessFactor" : 0.5
            }
        }
    ],
    "meshes" : [
        {
            "name" : "Wolves_Mesh",
            "primitives" : [
                {
                    "attributes" : {
                        "NORMAL" : 1,
                        "POSITION" : 0,
                        "TEXCOORD_0" : 2
                    },
                    "indices" : 3,
                    "material" : 0
                }
            ]
        }
    ],
    "nodes" : [
        {
            "name" : "Light",
            "rotation" : [
                0.16907574236392975,
                0.7558802962303162,
                -0.27217137813568115,
                0.5709474682807922
            ],
            "scale" : [
                0.22808967530727386,
                0.22808963060379028,
                0.22808966040611267
            ],
            "translation" : [
                3.658691883087158,
                1.544032096862793,
                -0.6738626956939697
            ]
        },
        {
            "mesh" : 0,
            "name" : "wolf"
        }
    ],
    "scene" : 0,
    "scenes" : [
        {
            "name" : "Scene",
            "nodes" : [
                0,
                1
            ]
        }
    ]
}
